<?xml version="1.0" standalone="no"?>
<!DOCTYPE svg PUBLIC "-//W3C//DTD SVG 20010904//EN"
 "http://www.w3.org/TR/2001/REC-SVG-20010904/DTD/svg10.dtd">
<svg version="1.0" xmlns="http://www.w3.org/2000/svg"
 width="1280.000000pt" height="1280.000000pt" viewBox="0 0 1280.000000 1280.000000"
 preserveAspectRatio="xMidYMid meet">
<metadata>
Created by potrace 1.15, written by Peter Selinger 2001-2017
</metadata>
<g transform="translate(0.000000,1280.000000) scale(0.100000,-0.100000)"
fill="#000000" stroke="none">
<path d="M6015 12789 c-1203 -75 -2353 -481 -3324 -1174 -1246 -890 -2132
-2187 -2500 -3663 -453 -1816 -89 -3744 994 -5261 1356 -1900 3611 -2908 5930
-2650 1079 119 2108 513 2995 1145 1334 951 2258 2381 2569 3977 339 1732 -46
3520 -1064 4946 -1215 1702 -3166 2702 -5245 2690 -124 -1 -283 -6 -355 -10z"/>
</g>
</svg>
